<!DOCTYPE svg PUBLIC "-//W3C//DTD SVG 1.1//EN" "http://www.w3.org/Graphics/SVG/1.1/DTD/svg11.dtd">
<!-- Uploaded to: SVG Repo, www.svgrepo.com, Transformed by: SVG Repo Mixer Tools -->
<svg height="209px" width="209px" version="1.1" id="Layer_1" xmlns="http://www.w3.org/2000/svg" xmlns:xlink="http://www.w3.org/1999/xlink" viewBox="0 0 392.50 392.50" xml:space="preserve" fill="#000000" stroke="#000000" stroke-width="0.00392495">
<g id="SVGRepo_bgCarrier" stroke-width="0"/>
<g id="SVGRepo_tracerCarrier" stroke-linecap="round" stroke-linejoin="round"/>
<g id="SVGRepo_iconCarrier"> <g> <path style="fill:#FFFFFF;" d="M263.079,291.922h-12.994c-14.222,12.929-28.444,24.76-42.667,35.362v33.875 C230.109,354.759,250.085,328.641,263.079,291.922z"/> <path style="fill:#FFFFFF;" d="M255.58,40.706c12.541,15.451,22.949,35.749,30.513,59.604h46.222 C313.374,73.546,286.74,52.601,255.58,40.706z"/> <path style="fill:#FFFFFF;" d="M207.354,299.809c3.168-2.521,6.4-5.172,9.568-7.887h-9.568V299.809z"/> <path style="fill:#FFFFFF;" d="M207.354,31.397v68.848h55.531C249.956,63.785,229.98,37.862,207.354,31.397z"/> <path style="fill:#FFFFFF;" d="M207.354,185.191h70.853c-0.776-22.432-3.879-43.83-8.727-63.16h-62.125V185.191z"/> <path style="fill:#FFFFFF;" d="M286.287,291.922c-7.628,23.984-18.166,44.412-30.772,59.992 c31.289-11.895,58.053-32.97,77.059-59.992H286.287z"/> <path style="fill:#FFFFFF;" d="M292.041,122.161c4.461,19.459,7.24,40.727,7.887,63.16h16.679 c13.059-18.23,24.178-36.331,32.905-53.85c-1.293-3.168-2.715-6.271-4.267-9.244h-53.204V122.161z"/> <path style="fill:#FFFFFF;" d="M358.95,160.367c-4.719,8.275-9.826,16.549-15.321,24.824h18.877 C361.988,176.787,360.76,168.512,358.95,160.367z"/> <path style="fill:#FFFFFF;" d="M300.186,206.977h-0.129c0,0.065,0,0.129,0,0.129S300.057,207.041,300.186,206.977z"/> <path style="fill:#FFFFFF;" d="M256.227,255.979c6.788-6.788,13.382-13.77,19.717-20.687c1.164-9.18,1.939-18.618,2.327-28.251 h-70.917v63.16h34.133C246.465,265.546,251.314,260.827,256.227,255.979z"/> <path style="fill:#FFFFFF;" d="M185.568,122.161h-62.125c-4.848,19.329-7.952,40.663-8.727,63.16h70.853V122.161L185.568,122.161z"/> <path style="fill:#FFFFFF;" d="M60.606,100.375h46.222c7.628-23.79,18.101-44.154,30.513-59.604 C106.311,52.601,79.613,73.546,60.606,100.375z"/> <path style="fill:#FFFFFF;" d="M30.481,185.191h62.513c0.711-22.432,3.426-43.636,7.887-63.16H47.548 C37.916,141.361,31.968,162.694,30.481,185.191z"/> <path style="fill:#FFFFFF;" d="M100.817,270.136c-4.461-19.459-7.176-40.727-7.822-63.16H30.417 c1.487,22.562,7.434,43.895,16.937,63.16H100.817L100.817,270.136z"/> <path style="fill:#FFFFFF;" d="M130.101,100.375h55.531V31.397C163.006,37.862,143.095,63.785,130.101,100.375z"/> <path style="fill:#FFFFFF;" d="M185.568,206.977h-70.853c0.776,22.432,3.814,43.766,8.663,63.16h62.19V206.977z"/> <path style="fill:#FFFFFF;" d="M296.695,244.989c-1.228,8.598-2.715,17.002-4.59,25.083h53.398 c9.568-19.265,15.515-40.598,16.937-63.16h-34.392C318.61,219.647,308.202,232.318,296.695,244.989z"/> <path style="fill:#FFFFFF;" d="M185.568,342.928c-5.43,3.62-10.667,6.982-15.968,10.214c5.107,3.814,10.537,6.465,15.968,8.016 V342.928z"/> <path style="fill:#FFFFFF;" d="M185.568,291.922h-55.661c6.335,18.036,14.481,33.487,23.661,45.253 c10.343-6.077,21.01-13.059,32-20.881V291.922L185.568,291.922z"/> <path style="fill:#FFFFFF;" d="M60.413,291.922c17.778,25.212,42.343,45.123,70.982,57.406c1.034-0.453,1.939-1.034,2.909-1.487 c-11.184-14.998-20.622-33.939-27.669-55.919H60.413z"/> </g> <path style="fill:#194F82;" d="M376.728,15.946c-22.432-22.432-63.612-21.075-116.17,3.297c-20.04-7.24-41.568-11.313-64.129-11.313 C92.671,7.995,8.243,92.488,8.243,196.245c0,22.497,4.008,44.154,11.313,64.129c-24.436,52.622-26.44,94.578-3.362,116.234 c30.772,28.832,83.135,12.671,115.911-3.426c20.105,7.37,41.826,11.378,64.388,11.378c103.758,0,188.25-84.428,188.25-188.251 c0-22.497-3.943-44.024-11.184-64.065C398.384,77.878,398.126,37.344,376.728,15.946z M361.342,31.397 c12.929,12.929,12.671,39.499-0.129,73.891c-17.131-30.901-42.731-56.501-73.632-73.632 C321.649,18.92,348.542,18.597,361.342,31.397z M316.671,185.191h-16.679c-0.711-22.432-3.426-43.636-7.887-63.16h53.333 c1.552,3.038,2.909,6.077,4.267,9.244C340.914,148.86,329.73,167.025,316.671,185.191z M358.95,160.367 c1.745,8.016,2.909,16.291,3.556,24.824h-18.877C349.253,176.916,354.231,168.641,358.95,160.367z M300.186,206.977 c-0.065,0.065-0.065,0.129-0.129,0.129c0-0.065,0-0.129,0-0.129H300.186z M286.158,100.375 c-7.628-23.79-18.101-44.154-30.513-59.604c31.16,11.895,57.794,32.84,76.735,59.604H286.158z M207.354,270.136v-63.16h70.853 c-0.323,9.632-1.164,19.071-2.327,28.251c-6.335,6.982-12.929,13.899-19.717,20.687c-4.848,4.848-9.762,9.568-14.61,14.158h-34.198 V270.136z M217.051,291.922c-3.168,2.715-6.4,5.301-9.568,7.887v-7.887H217.051z M269.479,122.161 c4.848,19.329,7.952,40.663,8.727,63.16h-70.853v-63.16L269.479,122.161L269.479,122.161z M207.354,100.375V31.397 c22.562,6.4,42.602,32.388,55.531,68.848h-55.531V100.375z M207.354,327.284c14.222-10.667,28.444-22.497,42.667-35.362h12.994 c-12.994,36.719-32.97,62.772-55.661,69.236V327.284z M255.516,351.849c12.606-15.515,23.079-36.008,30.772-59.992h46.352 C313.633,318.88,286.804,339.954,255.516,351.849z M345.633,270.136h-53.398c1.875-8.016,3.297-16.485,4.59-25.083 c11.507-12.735,21.915-25.406,31.418-38.012h34.392C361.148,229.538,355.2,250.872,345.633,270.136z M153.633,337.175 c-9.244-11.83-17.325-27.281-23.661-45.253h55.661v24.372C174.707,324.116,164.041,331.098,153.633,337.175z M185.568,342.928v18.23 c-5.495-1.552-10.796-4.331-15.968-8.016C174.901,349.845,180.267,346.484,185.568,342.928z M134.433,347.841 c-1.034,0.517-2.004,1.034-2.909,1.487c-28.703-12.218-53.269-32.259-71.046-57.406h46.352 C113.81,313.902,123.184,332.843,134.433,347.841z M123.378,270.136c-4.848-19.329-7.887-40.663-8.663-63.16h70.853v63.16H123.378 L123.378,270.136z M114.78,185.191c0.776-22.432,3.879-43.83,8.727-63.16h62.125v63.16L114.78,185.191L114.78,185.191z M106.829,100.375H60.606c18.941-26.764,45.576-47.774,76.735-59.604C124.93,56.221,114.457,76.52,106.829,100.375z M100.881,122.161c-4.461,19.459-7.24,40.727-7.887,63.16H30.481c1.487-22.562,7.499-43.895,17.067-63.16L100.881,122.161 L100.881,122.161z M92.994,206.977c0.711,22.432,3.426,43.636,7.822,63.16H47.419c-9.568-19.265-15.515-40.598-16.937-63.16 L92.994,206.977L92.994,206.977z M185.568,100.375h-55.531c13.059-36.525,32.97-62.513,55.531-68.913V100.375z M31.645,361.159 c-12.8-12.8-12.541-39.693,0.129-73.826c17.067,30.836,42.602,56.307,73.309,73.503C70.821,373.506,44.186,373.765,31.645,361.159z"/> <g> <path style="fill:#56ACE0;" d="M300.186,206.977h-0.129c0,0.065,0,0.129,0,0.129S300.057,207.041,300.186,206.977z"/> <path style="fill:#56ACE0;" d="M276.914,76.068c3.426,7.564,6.594,15.709,9.244,24.178h18.36 C296.372,91.13,287.128,82.985,276.914,76.068z"/> <path style="fill:#56ACE0;" d="M292.041,122.161c4.461,19.459,7.24,40.727,7.887,63.16h16.679 c6.853-9.568,13.123-19.071,18.877-28.509c-3.491-12.283-8.598-23.855-14.998-34.651L292.041,122.161L292.041,122.161z"/> <path style="fill:#56ACE0;" d="M263.079,291.922h-12.994c-14.222,12.929-28.444,24.76-42.667,35.362v13.123 c12.024-0.905,23.725-3.232,34.78-6.982C250.279,322.177,257.261,308.148,263.079,291.922z"/> <path style="fill:#56ACE0;" d="M185.568,122.161h-62.125c-4.848,19.329-7.952,40.663-8.727,63.16h70.853V122.161L185.568,122.161z"/> <path style="fill:#56ACE0;" d="M130.101,100.375h55.531V52.148c-12.024,0.905-23.725,3.232-34.78,6.982 C142.837,70.314,135.726,84.278,130.101,100.375z"/> <path style="fill:#56ACE0;" d="M116.202,316.488c-3.491-7.758-6.659-15.903-9.438-24.566H88.146 C96.421,301.231,105.794,309.506,116.202,316.488z"/> <path style="fill:#56ACE0;" d="M185.568,316.359v-24.372h-55.661c5.689,16.226,12.8,30.319,20.945,41.568 c1.939,0.646,3.879,1.228,5.818,1.745C166.109,329.611,175.742,323.34,185.568,316.359z"/> <path style="fill:#56ACE0;" d="M123.378,270.136h62.19v-63.16h-70.853C115.491,229.409,118.594,250.807,123.378,270.136z"/> <path style="fill:#56ACE0;" d="M100.817,270.136c-4.461-19.459-7.176-40.727-7.822-63.16H52.267 c1.681,22.949,8.727,44.347,19.846,63.16H100.817L100.817,270.136z"/> <path style="fill:#56ACE0;" d="M88.469,100.375h18.36c2.715-8.598,5.883-16.614,9.244-24.178 C105.924,82.985,96.55,91.13,88.469,100.375z"/> <path style="fill:#56ACE0;" d="M207.354,100.375h55.531c-5.689-16.097-12.735-30.061-20.816-41.244 c-11.055-3.685-22.691-6.077-34.78-6.982v48.226H207.354z"/> <path style="fill:#56ACE0;" d="M92.994,185.191c0.711-22.432,3.426-43.636,7.887-63.16H72.372 c-11.184,18.683-18.295,40.21-20.105,63.16L92.994,185.191L92.994,185.191z"/> <path style="fill:#56ACE0;" d="M304.905,291.922h-18.618c-2.78,8.663-5.947,16.873-9.438,24.566 C287.192,309.506,296.631,301.231,304.905,291.922z"/> <path style="fill:#56ACE0;" d="M207.354,291.922v7.887c3.168-2.521,6.4-5.172,9.568-7.887H207.354z"/> <path style="fill:#56ACE0;" d="M328.114,206.977c-9.503,12.606-19.911,25.277-31.418,38.012c-1.228,8.598-2.715,17.002-4.59,25.083 h28.574c11.119-18.683,18.166-40.21,19.846-63.16L328.114,206.977L328.114,206.977z"/> <path style="fill:#56ACE0;" d="M256.227,255.979c6.788-6.788,13.382-13.77,19.717-20.687c1.164-9.18,1.939-18.618,2.327-28.251 h-70.917v63.16h34.133C246.465,265.546,251.314,260.827,256.227,255.979z"/> <path style="fill:#56ACE0;" d="M269.479,122.161h-62.125v63.095h70.853C277.431,162.759,274.328,141.49,269.479,122.161z"/> </g> </g>
</svg>